<?xml version="1.0" encoding="UTF-8"?>
<!DOCTYPE svg PUBLIC "-//W3C//DTD SVG 1.1//EN" "http://www.w3.org/Graphics/SVG/1.1/DTD/svg11.dtd">
<svg xmlns="http://www.w3.org/2000/svg" version="1.1" width="200px" height="200px" style="shape-rendering:geometricPrecision; text-rendering:geometricPrecision; image-rendering:optimizeQuality; fill-rule:evenodd; clip-rule:evenodd" xmlns:xlink="http://www.w3.org/1999/xlink">
<g><path style="opacity:0.004" fill="#fefffe" d="M 79.5,0.5 C 80.8333,1.16667 80.8333,1.16667 79.5,0.5 Z"/></g>
<g><path style="opacity:0.004" fill="#fefffe" d="M 159.5,1.5 C 160.833,2.16667 160.833,2.16667 159.5,1.5 Z"/></g>
<g><path style="opacity:0.004" fill="#fefffe" d="M 37.5,7.5 C 38.8333,8.16667 38.8333,8.16667 37.5,7.5 Z"/></g>
<g><path style="opacity:0.004" fill="#fefffe" d="M 143.5,13.5 C 144.833,14.1667 144.833,14.1667 143.5,13.5 Z"/></g>
<g><path style="opacity:0.004" fill="#fefffe" d="M 18.5,15.5 C 19.8333,16.1667 19.8333,16.1667 18.5,15.5 Z"/></g>
<g><path style="opacity:0.004" fill="#fefffe" d="M 44.5,18.5 C 45.8333,19.1667 45.8333,19.1667 44.5,18.5 Z"/></g>
<g><path style="opacity:0.692" fill="#b86a70" d="M 101.5,19.5 C 99.396,19.2011 97.396,19.5344 95.5,20.5C 94.5331,21.984 93.1998,22.984 91.5,23.5C 93.2829,17.6442 96.6163,16.3109 101.5,19.5 Z"/></g>
<g><path style="opacity:1" fill="#ac363d" d="M 101.5,19.5 C 105.281,23.6243 108.281,28.2909 110.5,33.5C 109.279,32.9717 108.113,32.305 107,31.5C 104.97,28.7737 103.47,25.7737 102.5,22.5C 96.0681,20.9086 92.7348,23.5753 92.5,30.5C 94.0579,37.2521 96.3913,43.5854 99.5,49.5C 98.407,47.6508 97.0737,45.9842 95.5,44.5C 93.9909,39.4705 92.3242,34.4705 90.5,29.5C 91.1556,27.5466 91.4889,25.5466 91.5,23.5C 93.1998,22.984 94.5331,21.984 95.5,20.5C 97.396,19.5344 99.396,19.2011 101.5,19.5 Z"/></g>
<g><path style="opacity:0.004" fill="#fefffe" d="M 112.5,24.5 C 113.833,25.1667 113.833,25.1667 112.5,24.5 Z"/></g>
<g><path style="opacity:0.004" fill="#fefffe" d="M 167.5,25.5 C 168.833,26.1667 168.833,26.1667 167.5,25.5 Z"/></g>
<g><path style="opacity:0.004" fill="#fefffe" d="M 194.5,26.5 C 195.833,27.1667 195.833,27.1667 194.5,26.5 Z"/></g>
<g><path style="opacity:1" fill="#c1242c" d="M 110.5,33.5 C 110.5,34.8333 110.5,36.1667 110.5,37.5C 109.099,37.0291 107.766,36.3624 106.5,35.5C 105.974,33.7697 104.974,32.4363 103.5,31.5C 103.218,33.9866 103.218,36.6533 103.5,39.5C 102.448,39.3505 101.448,39.5172 100.5,40C 101.424,40.85 101.424,41.85 100.5,43C 103.258,49.7074 106.258,56.5407 109.5,63.5C 109.5,63.8333 109.5,64.1667 109.5,64.5C 108.391,64.4431 107.391,64.1098 106.5,63.5C 107.211,60.1362 106.044,57.8029 103,56.5C 102.861,53.5547 101.694,51.2214 99.5,49.5C 96.3913,43.5854 94.0579,37.2521 92.5,30.5C 92.7348,23.5753 96.0681,20.9086 102.5,22.5C 103.47,25.7737 104.97,28.7737 107,31.5C 108.113,32.305 109.279,32.9717 110.5,33.5 Z"/></g>
<g><path style="opacity:0.004" fill="#fefffe" d="M 157.5,28.5 C 158.833,29.1667 158.833,29.1667 157.5,28.5 Z"/></g>
<g><path style="opacity:0.004" fill="#fefffe" d="M 166.5,28.5 C 167.833,29.1667 167.833,29.1667 166.5,28.5 Z"/></g>
<g><path style="opacity:0.004" fill="#fefffe" d="M 46.5,29.5 C 47.8333,30.1667 47.8333,30.1667 46.5,29.5 Z"/></g>
<g><path style="opacity:0.878" fill="#c6797d" d="M 91.5,23.5 C 91.4889,25.5466 91.1556,27.5466 90.5,29.5C 92.3242,34.4705 93.9909,39.4705 95.5,44.5C 91.0921,39.6852 88.9254,34.0185 89,27.5C 89.6082,25.9336 90.4415,24.6002 91.5,23.5 Z"/></g>
<g><path style="opacity:0.004" fill="#fefffe" d="M 144.5,32.5 C 145.833,33.1667 145.833,33.1667 144.5,32.5 Z"/></g>
<g><path style="opacity:1" fill="#c5222a" d="M 110.5,37.5 C 113.034,40.5779 115.034,43.9112 116.5,47.5C 116.5,48.8333 116.5,50.1667 116.5,51.5C 112.322,54.3077 109.989,58.3077 109.5,63.5C 106.258,56.5407 103.258,49.7074 100.5,43C 101.424,41.85 101.424,40.85 100.5,40C 101.448,39.5172 102.448,39.3505 103.5,39.5C 103.218,36.6533 103.218,33.9866 103.5,31.5C 104.974,32.4363 105.974,33.7697 106.5,35.5C 107.766,36.3624 109.099,37.0291 110.5,37.5 Z"/></g>
<g><path style="opacity:0.004" fill="#fefffe" d="M 174.5,40.5 C 175.833,41.1667 175.833,41.1667 174.5,40.5 Z"/></g>
<g><path style="opacity:0.855" fill="#ba6063" d="M 110.5,33.5 C 114.251,37.9946 117.251,42.9946 119.5,48.5C 118.609,47.8902 117.609,47.5569 116.5,47.5C 115.034,43.9112 113.034,40.5779 110.5,37.5C 110.5,36.1667 110.5,34.8333 110.5,33.5 Z"/></g>
<g><path style="opacity:0.004" fill="#fefffe" d="M 44.5,43.5 C 45.8333,44.1667 45.8333,44.1667 44.5,43.5 Z"/></g>
<g><path style="opacity:0.004" fill="#fefffe" d="M 184.5,46.5 C 185.833,47.1667 185.833,47.1667 184.5,46.5 Z"/></g>
<g><path style="opacity:0.004" fill="#fefffe" d="M 193.5,51.5 C 194.833,52.1667 194.833,52.1667 193.5,51.5 Z"/></g>
<g><path style="opacity:0.004" fill="#fefffe" d="M 88.5,52.5 C 89.8333,53.1667 89.8333,53.1667 88.5,52.5 Z"/></g>
<g><path style="opacity:0.004" fill="#fefffe" d="M 49.5,54.5 C 50.8333,55.1667 50.8333,55.1667 49.5,54.5 Z"/></g>
<g><path style="opacity:0.004" fill="#fefffe" d="M 62.5,54.5 C 63.8333,55.1667 63.8333,55.1667 62.5,54.5 Z"/></g>
<g><path style="opacity:0.004" fill="#fefffe" d="M 138.5,54.5 C 139.833,55.1667 139.833,55.1667 138.5,54.5 Z"/></g>
<g><path style="opacity:0.004" fill="#feff00" d="M 7.5,55.5 C 8.83333,56.1667 8.83333,56.1667 7.5,55.5 Z"/></g>
<g><path style="opacity:0.004" fill="#fefffe" d="M 56.5,55.5 C 57.8333,56.1667 57.8333,56.1667 56.5,55.5 Z"/></g>
<g><path style="opacity:1" fill="#c52229" d="M 116.5,51.5 C 116.489,53.0174 115.823,54.1841 114.5,55C 116.377,56.1853 118.377,57.1853 120.5,58C 121.059,58.7247 121.392,59.5581 121.5,60.5C 120.058,62.847 118.724,65.1803 117.5,67.5C 114.549,67.7128 111.882,67.0461 109.5,65.5C 109.5,65.1667 109.5,64.8333 109.5,64.5C 109.5,64.1667 109.5,63.8333 109.5,63.5C 109.989,58.3077 112.322,54.3077 116.5,51.5 Z"/></g>
<g><path style="opacity:0.004" fill="#fefffe" d="M 199.5,56.5 C 199.5,56.8333 199.5,57.1667 199.5,57.5C 198.83,57.0187 198.83,56.6853 199.5,56.5 Z"/></g>
<g><path style="opacity:0.004" fill="#fefffe" d="M 60.5,57.5 C 61.8333,58.1667 61.8333,58.1667 60.5,57.5 Z"/></g>
<g><path style="opacity:0.039" fill="#e9c5d2" d="M 83.5,56.5 C 85.0269,56.427 86.0269,57.0937 86.5,58.5C 84.9731,58.573 83.9731,57.9063 83.5,56.5 Z"/></g>
<g><path style="opacity:0.906" fill="#ce8685" d="M 95.5,44.5 C 97.0737,45.9842 98.407,47.6508 99.5,49.5C 101.694,51.2214 102.861,53.5547 103,56.5C 106.044,57.8029 107.211,60.1362 106.5,63.5C 102.079,57.6656 98.4124,51.3322 95.5,44.5 Z"/></g>
<g><path style="opacity:0.592" fill="#b26668" d="M 83.5,56.5 C 81.0065,56.1307 80.3398,56.7973 81.5,58.5C 79.1432,58.3367 76.8098,58.5034 74.5,59C 73.5291,60.4813 72.1958,61.3146 70.5,61.5C 73.7724,56.8565 78.1057,55.1899 83.5,56.5 Z"/></g>
<g><path style="opacity:0.118" fill="#e39e9d" d="M 124.5,57.5 C 125.906,57.9731 126.573,58.9731 126.5,60.5C 125.094,60.0269 124.427,59.0269 124.5,57.5 Z"/></g>
<g><path style="opacity:1" fill="#bc2530" d="M 116.5,47.5 C 117.609,47.5569 118.609,47.8902 119.5,48.5C 119.539,51.3214 120.205,53.9881 121.5,56.5C 124.56,59.9359 126.893,63.9359 128.5,68.5C 129.417,69.1272 130.417,69.4606 131.5,69.5C 131.5,70.8333 131.5,72.1667 131.5,73.5C 129.717,72.8865 128.384,71.7198 127.5,70C 119.113,68.2602 116.446,71.4269 119.5,79.5C 119.167,79.5 118.833,79.5 118.5,79.5C 115.815,74.6489 112.815,69.9823 109.5,65.5C 111.882,67.0461 114.549,67.7128 117.5,67.5C 118.724,65.1803 120.058,62.847 121.5,60.5C 121.392,59.5581 121.059,58.7247 120.5,58C 118.377,57.1853 116.377,56.1853 114.5,55C 115.823,54.1841 116.489,53.0174 116.5,51.5C 116.5,50.1667 116.5,48.8333 116.5,47.5 Z"/></g>
<g><path style="opacity:0.004" fill="#fefffe" d="M 36.5,65.5 C 37.8333,66.1667 37.8333,66.1667 36.5,65.5 Z"/></g>
<g><path style="opacity:1" fill="#b32932" d="M 81.5,58.5 C 84.6373,63.1088 86.9706,68.1088 88.5,73.5C 85.0318,70.6704 82.6985,67.0038 81.5,62.5C 78.6341,61.2054 75.8007,61.2054 73,62.5C 71.2725,65.6179 70.4392,68.9513 70.5,72.5C 69.5206,69.3752 69.1872,66.0419 69.5,62.5C 69.5,61.8333 69.8333,61.5 70.5,61.5C 72.1958,61.3146 73.5291,60.4813 74.5,59C 76.8098,58.5034 79.1432,58.3367 81.5,58.5 Z"/></g>
<g><path style="opacity:0.012" fill="#eadde0" d="M 95.5,66.5 C 97.0269,66.427 98.0269,67.0937 98.5,68.5C 96.9731,68.573 95.9731,67.9063 95.5,66.5 Z"/></g>
<g><path style="opacity:1" fill="#b1484d" d="M 119.5,48.5 C 121.56,51.2402 123.226,54.2402 124.5,57.5C 124.427,59.0269 125.094,60.0269 126.5,60.5C 128.56,63.2402 130.226,66.2402 131.5,69.5C 130.417,69.4606 129.417,69.1272 128.5,68.5C 126.893,63.9359 124.56,59.9359 121.5,56.5C 120.205,53.9881 119.539,51.3214 119.5,48.5 Z"/></g>
<g><path style="opacity:0.004" fill="#fefffe" d="M 191.5,67.5 C 192.833,68.1667 192.833,68.1667 191.5,67.5 Z"/></g>
<g><path style="opacity:1" fill="#c62229" d="M 131.5,73.5 C 133.088,75.1133 134.088,77.1133 134.5,79.5C 133.797,82.8606 132.463,83.1939 130.5,80.5C 128.955,79.5481 127.288,79.2148 125.5,79.5C 125.5,81.5 125.5,83.5 125.5,85.5C 126.833,85.5 128.167,85.5 129.5,85.5C 129.769,87.4286 129.269,89.0953 128,90.5C 126.667,87.8333 124.667,85.8333 122,84.5C 121.626,82.5087 120.793,80.842 119.5,79.5C 116.446,71.4269 119.113,68.2602 127.5,70C 128.384,71.7198 129.717,72.8865 131.5,73.5 Z"/></g>
<g><path style="opacity:1" fill="#711320" d="M 83.5,56.5 C 83.9731,57.9063 84.9731,58.573 86.5,58.5C 86.0217,61.2776 87.0217,63.2776 89.5,64.5C 90.4287,65.6888 90.762,67.0222 90.5,68.5C 92.7812,68.0773 94.4479,68.744 95.5,70.5C 93.9616,78.3784 96.4616,84.7118 103,89.5C 103.333,91.1667 103.667,92.8333 104,94.5C 106.941,95.7727 109.274,97.7727 111,100.5C 111.423,99.0439 112.256,98.5439 113.5,99C 115.037,100.11 115.703,101.61 115.5,103.5C 112.402,103.413 112.068,103.913 114.5,105C 113.027,105.71 112.36,106.876 112.5,108.5C 112.167,108.5 111.833,108.5 111.5,108.5C 110.086,106.189 108.253,104.189 106,102.5C 105.559,99.0606 103.892,96.3939 101,94.5C 97.7409,87.7317 94.2409,81.065 90.5,74.5C 89.8165,74.1373 89.1499,73.8039 88.5,73.5C 86.9706,68.1088 84.6373,63.1088 81.5,58.5C 80.3398,56.7973 81.0065,56.1307 83.5,56.5 Z"/></g>
<g><path style="opacity:0.925" fill="#b4565b" d="M 106.5,63.5 C 107.391,64.1098 108.391,64.4431 109.5,64.5C 109.5,64.8333 109.5,65.1667 109.5,65.5C 112.815,69.9823 115.815,74.6489 118.5,79.5C 118.5,80.8333 118.5,82.1667 118.5,83.5C 117.833,82.8333 117.167,82.1667 116.5,81.5C 112.647,75.7951 109.314,69.7951 106.5,63.5 Z"/></g>
<g><path style="opacity:0.004" fill="#fefffe" d="M 180.5,72.5 C 181.833,73.1667 181.833,73.1667 180.5,72.5 Z"/></g>
<g><path style="opacity:1" fill="#c6212a" d="M 88.5,73.5 C 91.267,77.7028 91.9337,82.2028 90.5,87C 94.8547,88.1865 97.188,91.0198 97.5,95.5C 98.8221,95.33 99.9887,95.6634 101,96.5C 102.139,100.112 103.806,103.446 106,106.5C 106.896,109.025 106.396,111.192 104.5,113C 107.056,117.472 108.056,122.305 107.5,127.5C 106.178,127.67 105.011,127.337 104,126.5C 102.41,122.258 100.41,118.258 98,114.5C 97.6667,114.833 97.3333,115.167 97,115.5C 95.8102,112.806 95.6435,110.139 96.5,107.5C 98.1266,108.919 98.6266,108.586 98,106.5C 96.6667,105.833 95.6667,104.833 95,103.5C 92.9734,103.986 90.8067,103.986 88.5,103.5C 89.1091,99.9947 87.9424,97.328 85,95.5C 85.7056,90.3781 83.539,87.3781 78.5,86.5C 77.1992,83.977 76.1992,81.3103 75.5,78.5C 72.715,77.3857 71.0483,75.3857 70.5,72.5C 70.4392,68.9513 71.2725,65.6179 73,62.5C 75.8007,61.2054 78.6341,61.2054 81.5,62.5C 82.6985,67.0038 85.0318,70.6704 88.5,73.5 Z"/></g>
<g><path style="opacity:0.004" fill="#fefffe" d="M 61.5,74.5 C 62.8333,75.1667 62.8333,75.1667 61.5,74.5 Z"/></g>
<g><path style="opacity:1" fill="#c0252c" d="M 119.5,79.5 C 120.793,80.842 121.626,82.5087 122,84.5C 124.667,85.8333 126.667,87.8333 128,90.5C 129.269,89.0953 129.769,87.4286 129.5,85.5C 128.167,85.5 126.833,85.5 125.5,85.5C 125.5,83.5 125.5,81.5 125.5,79.5C 127.288,79.2148 128.955,79.5481 130.5,80.5C 132.463,83.1939 133.797,82.8606 134.5,79.5C 137.041,83.2518 140.041,86.5852 143.5,89.5C 143.5,90.8333 143.5,92.1667 143.5,93.5C 140.724,91.3891 138.557,88.7224 137,85.5C 136.333,86.8333 135.667,86.8333 135,85.5C 134.588,88.8302 133.422,91.8302 131.5,94.5C 133.076,96.9793 134.076,99.646 134.5,102.5C 132.539,101.54 130.873,100.207 129.5,98.5C 127.243,93.6536 124.243,89.3203 120.5,85.5C 119.652,83.5914 119.318,81.5914 119.5,79.5 Z"/></g>
<g><path style="opacity:0.004" fill="#fefffe" d="M 186.5,82.5 C 187.833,83.1667 187.833,83.1667 186.5,82.5 Z"/></g>
<g><path style="opacity:0.063" fill="#efb3ba" d="M 116.5,81.5 C 117.167,82.1667 117.833,82.8333 118.5,83.5C 118.5,84.1667 118.5,84.8333 118.5,85.5C 118.167,85.5 117.833,85.5 117.5,85.5C 116.833,85.1667 116.167,84.8333 115.5,84.5C 115.5,83.8333 115.5,83.1667 115.5,82.5C 116.167,82.5 116.5,82.1667 116.5,81.5 Z"/></g>
<g><path style="opacity:0.757" fill="#b25458" d="M 131.5,69.5 C 136,75.8272 140,82.4938 143.5,89.5C 140.041,86.5852 137.041,83.2518 134.5,79.5C 134.088,77.1133 133.088,75.1133 131.5,73.5C 131.5,72.1667 131.5,70.8333 131.5,69.5 Z"/></g>
<g><path style="opacity:0.004" fill="#fefffe" d="M 16.5,86.5 C 17.8333,87.1667 17.8333,87.1667 16.5,86.5 Z"/></g>
<g><path style="opacity:0.004" fill="#fefffe" d="M 65.5,86.5 C 66.8333,87.1667 66.8333,87.1667 65.5,86.5 Z"/></g>
<g><path style="opacity:0.91" fill="#b8585b" d="M 69.5,62.5 C 69.1872,66.0419 69.5206,69.3752 70.5,72.5C 71.0483,75.3857 72.715,77.3857 75.5,78.5C 76.1992,81.3103 77.1992,83.977 78.5,86.5C 79.1495,88.4352 79.4828,90.4352 79.5,92.5C 75.5299,86.3378 71.6966,80.0044 68,73.5C 67.3333,70.5 67.3333,67.5 68,64.5C 68.2784,63.5842 68.7784,62.9175 69.5,62.5 Z"/></g>
<g><path style="opacity:1" fill="#671426" d="M 95.5,70.5 C 97.6186,71.7912 99.2853,73.6246 100.5,76C 102.917,77.6258 105.417,79.1258 108,80.5C 108.687,82.5675 108.52,84.5675 107.5,86.5C 108.531,87.7003 109.365,89.0337 110,90.5C 111.242,88.4593 113.075,87.2927 115.5,87C 114.402,86.2303 114.402,85.397 115.5,84.5C 116.167,84.8333 116.833,85.1667 117.5,85.5C 117.215,87.288 117.548,88.9547 118.5,90.5C 121.494,93.9998 124.327,97.6665 127,101.5C 127.273,104.393 128.107,107.06 129.5,109.5C 129.24,111.187 128.573,112.687 127.5,114C 132.263,113.733 135.097,116.233 136,121.5C 139.592,123.873 141.425,127.206 141.5,131.5C 138.259,127.737 135.093,123.737 132,119.5C 131.667,119.833 131.333,120.167 131,120.5C 128.145,118.492 124.979,117.159 121.5,116.5C 120.833,116.5 120.5,116.167 120.5,115.5C 118.451,112.45 115.784,110.117 112.5,108.5C 112.36,106.876 113.027,105.71 114.5,105C 112.068,103.913 112.402,103.413 115.5,103.5C 115.703,101.61 115.037,100.11 113.5,99C 112.256,98.5439 111.423,99.0439 111,100.5C 109.274,97.7727 106.941,95.7727 104,94.5C 103.667,92.8333 103.333,91.1667 103,89.5C 96.4616,84.7118 93.9616,78.3784 95.5,70.5 Z"/></g>
<g><path style="opacity:1" fill="#652431" d="M 86.5,58.5 C 90.1051,60.4719 93.1051,63.1385 95.5,66.5C 95.9731,67.9063 96.9731,68.573 98.5,68.5C 104.167,73.1667 109.833,77.8333 115.5,82.5C 115.5,83.1667 115.5,83.8333 115.5,84.5C 114.402,85.397 114.402,86.2303 115.5,87C 113.075,87.2927 111.242,88.4593 110,90.5C 109.365,89.0337 108.531,87.7003 107.5,86.5C 108.52,84.5675 108.687,82.5675 108,80.5C 105.417,79.1258 102.917,77.6258 100.5,76C 99.2853,73.6246 97.6186,71.7912 95.5,70.5C 94.4479,68.744 92.7812,68.0773 90.5,68.5C 90.762,67.0222 90.4287,65.6888 89.5,64.5C 87.0217,63.2776 86.0217,61.2776 86.5,58.5 Z"/></g>
<g><path style="opacity:0.004" fill="#fefffe" d="M 15.5,92.5 C 16.8333,93.1667 16.8333,93.1667 15.5,92.5 Z"/></g>
<g><path style="opacity:0.118" fill="#e4cbd1" d="M 63.5,91.5 C 65.674,91.7497 67.3406,92.7497 68.5,94.5C 66.326,94.2503 64.6594,93.2503 63.5,91.5 Z"/></g>
<g><path style="opacity:0.804" fill="#bd6d70" d="M 143.5,89.5 C 144.89,90.8993 145.89,92.5659 146.5,94.5C 145.609,93.8902 144.609,93.5569 143.5,93.5C 143.5,92.1667 143.5,90.8333 143.5,89.5 Z"/></g>
<g><path style="opacity:0.957" fill="#c27175" d="M 79.5,92.5 C 83.5883,95.3426 85.5883,99.3426 85.5,104.5C 83.9139,103.587 82.4139,103.587 81,104.5C 80.4867,103.473 79.9867,102.473 79.5,101.5C 80.5832,101.539 81.5832,101.873 82.5,102.5C 82.8333,102 83.1667,101.5 83.5,101C 82.2754,98.0537 80.9421,95.2204 79.5,92.5 Z"/></g>
<g><path style="opacity:1" fill="#c6212a" d="M 143.5,93.5 C 143.845,98.5259 146.012,102.526 150,105.5C 151.761,108.411 153.261,111.411 154.5,114.5C 154.372,116.655 154.872,118.655 156,120.5C 158.374,122.378 160.208,124.712 161.5,127.5C 160.478,128.354 159.645,129.354 159,130.5C 157.256,129.351 157.089,128.017 158.5,126.5C 158.043,125.702 157.376,125.369 156.5,125.5C 154.932,124.131 153.099,123.131 151,122.5C 149.729,119.567 148.062,116.901 146,114.5C 146.319,112.257 146.152,110.09 145.5,108C 145.167,107.833 144.833,107.667 144.5,107.5C 143.24,109.353 143.24,111.186 144.5,113C 142.866,113.494 141.199,113.66 139.5,113.5C 138.283,109.642 136.617,105.975 134.5,102.5C 134.076,99.646 133.076,96.9793 131.5,94.5C 133.422,91.8302 134.588,88.8302 135,85.5C 135.667,86.8333 136.333,86.8333 137,85.5C 138.557,88.7224 140.724,91.3891 143.5,93.5 Z"/></g>
<g><path style="opacity:0.059" fill="#dac0c8" d="M 68.5,94.5 C 70.0269,94.427 71.0269,95.0937 71.5,96.5C 69.9731,96.573 68.9731,95.9063 68.5,94.5 Z"/></g>
<g><path style="opacity:1" fill="#b34147" d="M 143.5,93.5 C 144.609,93.5569 145.609,93.8902 146.5,94.5C 151.255,101.004 155.255,108.004 158.5,115.5C 158.5,116.5 158.5,117.5 158.5,118.5C 156.726,117.63 155.393,116.297 154.5,114.5C 153.261,111.411 151.761,108.411 150,105.5C 146.012,102.526 143.845,98.5259 143.5,93.5 Z"/></g>
<g><path style="opacity:0.004" fill="#fefffe" d="M 18.5,103.5 C 19.8333,104.167 19.8333,104.167 18.5,103.5 Z"/></g>
<g><path style="opacity:0.844" fill="#aa4c50" d="M 57.5,91.5 C 55.8608,92.4725 54.5274,93.8058 53.5,95.5C 52.7659,96.7079 52.4326,98.0413 52.5,99.5C 51.2921,100.234 49.9587,100.567 48.5,100.5C 48.1452,106.341 48.8119,112.008 50.5,117.5C 49.8333,117.167 49.1667,116.833 48.5,116.5C 44.4253,106.944 46.4253,98.7772 54.5,92C 55.448,91.5172 56.448,91.3505 57.5,91.5 Z"/></g>
<g><path style="opacity:1" fill="#c72129" d="M 66.5,122.5 C 65.4168,122.539 64.4168,122.873 63.5,123.5C 62.3591,126.062 61.5257,128.728 61,131.5C 60.454,128.621 59.6206,125.954 58.5,123.5C 56.6964,122.619 55.1964,121.286 54,119.5C 53.5342,114.274 52.7009,109.107 51.5,104C 51.7728,102.467 52.1062,100.967 52.5,99.5C 54.0481,99.1788 54.7148,98.1788 54.5,96.5C 55.5,96.5 56.5,96.5 57.5,96.5C 59.3647,100.37 58.698,103.704 55.5,106.5C 57.3903,109.628 59.557,109.961 62,107.5C 62.8699,108.108 63.3699,108.941 63.5,110C 62.4911,111.168 61.4911,112.335 60.5,113.5C 61.7348,116.044 62.9015,116.044 64,113.5C 66.413,116.281 67.2463,119.281 66.5,122.5 Z"/></g>
<g><path style="opacity:1" fill="#bf252b" d="M 53.5,95.5 C 58.4928,95.4966 61.8261,97.8299 63.5,102.5C 63.3398,104.199 63.5065,105.866 64,107.5C 66.4387,112.173 68.9387,116.84 71.5,121.5C 70.4168,121.461 69.4168,121.127 68.5,120.5C 67.8182,121.243 67.1515,121.909 66.5,122.5C 67.2463,119.281 66.413,116.281 64,113.5C 62.9015,116.044 61.7348,116.044 60.5,113.5C 61.4911,112.335 62.4911,111.168 63.5,110C 63.3699,108.941 62.8699,108.108 62,107.5C 59.557,109.961 57.3903,109.628 55.5,106.5C 58.698,103.704 59.3647,100.37 57.5,96.5C 56.5,96.5 55.5,96.5 54.5,96.5C 54.7148,98.1788 54.0481,99.1788 52.5,99.5C 52.4326,98.0413 52.7659,96.7079 53.5,95.5 Z"/></g>
<g><path style="opacity:1" fill="#6c202e" d="M 57.5,91.5 C 59.5,90.1667 61.5,90.1667 63.5,91.5C 64.6594,93.2503 66.326,94.2503 68.5,94.5C 68.9731,95.9063 69.9731,96.573 71.5,96.5C 74.5113,97.6693 77.178,99.336 79.5,101.5C 79.9867,102.473 80.4867,103.473 81,104.5C 82.4139,103.587 83.9139,103.587 85.5,104.5C 85.5,105.167 85.5,105.833 85.5,106.5C 83.4559,108.219 81.4559,109.886 79.5,111.5C 79.4226,110.25 78.756,109.417 77.5,109C 75.1093,108.713 72.7759,108.213 70.5,107.5C 69.5581,104.007 68.2248,100.674 66.5,97.5C 64.0352,96.4118 62.3686,94.5785 61.5,92C 60.2068,91.51 58.8734,91.3433 57.5,91.5 Z"/></g>
<g><path style="opacity:1" fill="#bc2430" d="M 78.5,86.5 C 83.539,87.3781 85.7056,90.3781 85,95.5C 87.9424,97.328 89.1091,99.9947 88.5,103.5C 90.8067,103.986 92.9734,103.986 95,103.5C 95.6667,104.833 96.6667,105.833 98,106.5C 98.6266,108.586 98.1266,108.919 96.5,107.5C 95.6435,110.139 95.8102,112.806 97,115.5C 97.3333,115.167 97.6667,114.833 98,114.5C 100.41,118.258 102.41,122.258 104,126.5C 105.011,127.337 106.178,127.67 107.5,127.5C 107.833,131.5 108.167,135.5 108.5,139.5C 108.167,139.5 107.833,139.5 107.5,139.5C 106.571,137.564 105.237,135.897 103.5,134.5C 99.6641,126.828 95.8308,119.162 92,111.5C 89.5997,109.271 87.433,106.937 85.5,104.5C 85.5883,99.3426 83.5883,95.3426 79.5,92.5C 79.4828,90.4352 79.1495,88.4352 78.5,86.5 Z"/></g>
<g><path style="opacity:1" fill="#b82532" d="M 118.5,79.5 C 118.833,79.5 119.167,79.5 119.5,79.5C 119.318,81.5914 119.652,83.5914 120.5,85.5C 124.243,89.3203 127.243,93.6536 129.5,98.5C 130.873,100.207 132.539,101.54 134.5,102.5C 136.617,105.975 138.283,109.642 139.5,113.5C 140.261,114.391 141.261,115.058 142.5,115.5C 143.494,119.452 144.16,123.452 144.5,127.5C 137.583,117.213 131.416,106.546 126,95.5C 123.734,91.958 121.234,88.6247 118.5,85.5C 118.5,84.8333 118.5,84.1667 118.5,83.5C 118.5,82.1667 118.5,80.8333 118.5,79.5 Z"/></g>
<g><path style="opacity:1" fill="#741224" d="M 57.5,91.5 C 58.8734,91.3433 60.2068,91.51 61.5,92C 62.3686,94.5785 64.0352,96.4118 66.5,97.5C 68.2248,100.674 69.5581,104.007 70.5,107.5C 72.7759,108.213 75.1093,108.713 77.5,109C 78.756,109.417 79.4226,110.25 79.5,111.5C 79.5,113.167 79.5,114.833 79.5,116.5C 76.3648,116.452 74.6981,114.785 74.5,111.5C 74.1667,112.167 73.8333,112.833 73.5,113.5C 75.5219,116.524 76.5219,119.857 76.5,123.5C 73.0729,120.886 71.0729,117.386 70.5,113C 68.2528,109.308 65.9195,105.808 63.5,102.5C 61.8261,97.8299 58.4928,95.4966 53.5,95.5C 54.5274,93.8058 55.8608,92.4725 57.5,91.5 Z"/></g>
<g><path style="opacity:1" fill="#691326" d="M 85.5,106.5 C 89.3642,110.224 91.5309,114.891 92,120.5C 95.6737,123.134 97.6737,126.801 98,131.5C 99.3756,132.705 100.542,134.038 101.5,135.5C 99.1271,133.846 96.4604,132.513 93.5,131.5C 91.1916,127.581 88.5249,123.915 85.5,120.5C 85.0024,121.603 84.6691,122.603 84.5,123.5C 80.949,118.261 78.949,118.928 78.5,125.5C 77.5,125.167 76.8333,124.5 76.5,123.5C 76.5219,119.857 75.5219,116.524 73.5,113.5C 73.8333,112.833 74.1667,112.167 74.5,111.5C 74.6981,114.785 76.3648,116.452 79.5,116.5C 79.5,114.833 79.5,113.167 79.5,111.5C 81.4559,109.886 83.4559,108.219 85.5,106.5 Z"/></g>
<g><path style="opacity:1" fill="#751622" d="M 117.5,85.5 C 117.833,85.5 118.167,85.5 118.5,85.5C 121.234,88.6247 123.734,91.958 126,95.5C 131.416,106.546 137.583,117.213 144.5,127.5C 144.995,129.482 145.495,131.482 146,133.5C 148.405,135.403 150.239,137.736 151.5,140.5C 151.043,141.298 150.376,141.631 149.5,141.5C 147.64,140.061 145.973,138.395 144.5,136.5C 144.611,135.883 144.944,135.383 145.5,135C 144.468,133.373 143.134,132.207 141.5,131.5C 141.425,127.206 139.592,123.873 136,121.5C 135.097,116.233 132.263,113.733 127.5,114C 128.573,112.687 129.24,111.187 129.5,109.5C 128.107,107.06 127.273,104.393 127,101.5C 124.327,97.6665 121.494,93.9998 118.5,90.5C 117.548,88.9547 117.215,87.288 117.5,85.5 Z"/></g>
<g><path style="opacity:1" fill="#ba2633" d="M 52.5,99.5 C 52.1062,100.967 51.7728,102.467 51.5,104C 52.7009,109.107 53.5342,114.274 54,119.5C 55.1964,121.286 56.6964,122.619 58.5,123.5C 57.8529,124.274 57.5195,125.274 57.5,126.5C 58.9228,129.275 59.5895,132.275 59.5,135.5C 57.2139,130.567 54.2139,126.234 50.5,122.5C 50.5,120.833 50.5,119.167 50.5,117.5C 48.8119,112.008 48.1452,106.341 48.5,100.5C 49.9587,100.567 51.2921,100.234 52.5,99.5 Z"/></g>
<g><path style="opacity:1" fill="#b9262f" d="M 88.5,73.5 C 89.1499,73.8039 89.8165,74.1373 90.5,74.5C 94.2409,81.065 97.7409,87.7317 101,94.5C 103.892,96.3939 105.559,99.0606 106,102.5C 108.253,104.189 110.086,106.189 111.5,108.5C 111.062,108.435 110.728,108.601 110.5,109C 111.406,111.447 112.239,113.947 113,116.5C 113.671,117.252 114.504,117.586 115.5,117.5C 115.469,122.113 117.469,125.447 121.5,127.5C 122.423,130.796 123.423,134.129 124.5,137.5C 124.379,138.894 124.046,140.228 123.5,141.5C 118.833,142.833 114.167,142.833 109.5,141.5C 109.137,140.817 108.804,140.15 108.5,139.5C 112.78,140.54 117.113,140.706 121.5,140C 122.625,135.238 120.958,131.571 116.5,129C 117.022,128.439 117.355,127.772 117.5,127C 115.648,124.981 113.981,122.814 112.5,120.5C 111.294,122.484 111.294,124.484 112.5,126.5C 110.955,127.452 109.288,127.785 107.5,127.5C 108.056,122.305 107.056,117.472 104.5,113C 106.396,111.192 106.896,109.025 106,106.5C 103.806,103.446 102.139,100.112 101,96.5C 99.9887,95.6634 98.8221,95.33 97.5,95.5C 97.188,91.0198 94.8547,88.1865 90.5,87C 91.9337,82.2028 91.267,77.7028 88.5,73.5 Z"/></g>
<g><path style="opacity:0.847" fill="#b3676c" d="M 111.5,108.5 C 111.833,108.5 112.167,108.5 112.5,108.5C 115.784,110.117 118.451,112.45 120.5,115.5C 118.264,114.611 116.264,113.278 114.5,111.5C 114.167,111.833 113.833,112.167 113.5,112.5C 114.456,114.075 115.123,115.742 115.5,117.5C 114.504,117.586 113.671,117.252 113,116.5C 112.239,113.947 111.406,111.447 110.5,109C 110.728,108.601 111.062,108.435 111.5,108.5 Z"/></g>
<g><path style="opacity:1" fill="#c4222d" d="M 156.5,125.5 C 156.852,128.073 156.352,130.406 155,132.5C 152.427,129.689 150.094,126.689 148,123.5C 147.5,123.833 147,124.167 146.5,124.5C 147.127,125.417 147.461,126.417 147.5,127.5C 146.5,127.5 145.5,127.5 144.5,127.5C 144.16,123.452 143.494,119.452 142.5,115.5C 141.261,115.058 140.261,114.391 139.5,113.5C 141.199,113.66 142.866,113.494 144.5,113C 143.24,111.186 143.24,109.353 144.5,107.5C 144.833,107.667 145.167,107.833 145.5,108C 146.152,110.09 146.319,112.257 146,114.5C 148.062,116.901 149.729,119.567 151,122.5C 153.099,123.131 154.932,124.131 156.5,125.5 Z"/></g>
<g><path style="opacity:0.004" fill="#fefffe" d="M 197.5,114.5 C 198.833,115.167 198.833,115.167 197.5,114.5 Z"/></g>
<g><path style="opacity:0.004" fill="#fefffe" d="M 187.5,115.5 C 188.833,116.167 188.833,116.167 187.5,115.5 Z"/></g>
<g><path style="opacity:0.004" fill="#fefffe" d="M 17.5,116.5 C 18.8333,117.167 18.8333,117.167 17.5,116.5 Z"/></g>
<g><path style="opacity:1" fill="#b22933" d="M 63.5,102.5 C 65.9195,105.808 68.2528,109.308 70.5,113C 71.0729,117.386 73.0729,120.886 76.5,123.5C 76.8333,124.5 77.5,125.167 78.5,125.5C 79.1667,125.5 79.5,125.833 79.5,126.5C 78.8761,126.917 78.5427,127.584 78.5,128.5C 79.0027,132.04 80.0027,135.373 81.5,138.5C 81.0814,139.672 80.4147,140.672 79.5,141.5C 73.8722,142.495 68.2055,142.829 62.5,142.5C 61.0427,140.372 60.0427,138.038 59.5,135.5C 60.4674,136.806 61.8007,137.473 63.5,137.5C 63.147,139.635 63.9803,140.968 66,141.5C 68.5162,140.227 71.0162,140.227 73.5,141.5C 80.2995,140.603 81.1328,137.937 76,133.5C 75.2333,129.122 73.7333,125.122 71.5,121.5C 68.9387,116.84 66.4387,112.173 64,107.5C 63.5065,105.866 63.3398,104.199 63.5,102.5 Z"/></g>
<g><path style="opacity:0.004" fill="#fefffe" d="M 190.5,119.5 C 191.833,120.167 191.833,120.167 190.5,119.5 Z"/></g>
<g><path style="opacity:0.004" fill="#fefffe" d="M 0.5,120.5 C 1.83333,121.167 1.83333,121.167 0.5,120.5 Z"/></g>
<g><path style="opacity:1" fill="#c4222b" d="M 71.5,121.5 C 73.7333,125.122 75.2333,129.122 76,133.5C 81.1328,137.937 80.2995,140.603 73.5,141.5C 71.0162,140.227 68.5162,140.227 66,141.5C 63.9803,140.968 63.147,139.635 63.5,137.5C 61.8007,137.473 60.4674,136.806 59.5,135.5C 59.5895,132.275 58.9228,129.275 57.5,126.5C 57.5195,125.274 57.8529,124.274 58.5,123.5C 59.6206,125.954 60.454,128.621 61,131.5C 61.5257,128.728 62.3591,126.062 63.5,123.5C 64.4168,122.873 65.4168,122.539 66.5,122.5C 67.1515,121.909 67.8182,121.243 68.5,120.5C 69.4168,121.127 70.4168,121.461 71.5,121.5 Z"/></g>
<g><path style="opacity:1" fill="#672a36" d="M 121.5,116.5 C 124.979,117.159 128.145,118.492 131,120.5C 131.333,120.167 131.667,119.833 132,119.5C 135.093,123.737 138.259,127.737 141.5,131.5C 143.134,132.207 144.468,133.373 145.5,135C 144.944,135.383 144.611,135.883 144.5,136.5C 140.895,134.528 137.895,131.861 135.5,128.5C 134.089,126.086 132.089,124.419 129.5,123.5C 126.216,121.883 123.549,119.55 121.5,116.5 Z"/></g>
<g><path style="opacity:0.273" fill="#c89fa4" d="M 48.5,116.5 C 49.1667,116.833 49.8333,117.167 50.5,117.5C 50.5,119.167 50.5,120.833 50.5,122.5C 50.1667,122.5 49.8333,122.5 49.5,122.5C 45.8333,122.5 42.1667,122.5 38.5,122.5C 41.9619,121.518 45.6286,121.185 49.5,121.5C 49.3713,119.784 49.038,118.117 48.5,116.5 Z"/></g>
<g><path style="opacity:0.808" fill="#b56062" d="M 158.5,115.5 C 162.251,119.995 165.251,124.995 167.5,130.5C 165.973,129.069 164.306,127.735 162.5,126.5C 161.186,123.845 159.853,121.178 158.5,118.5C 158.5,117.5 158.5,116.5 158.5,115.5 Z"/></g>
<g><path style="opacity:0.933" fill="#b35758" d="M 115.5,117.5 C 118,120.494 120,123.827 121.5,127.5C 117.469,125.447 115.469,122.113 115.5,117.5 Z"/></g>
<g><path style="opacity:1" fill="#68232f" d="M 101.5,135.5 C 103.408,136.486 104.408,138.152 104.5,140.5C 96.2077,136.688 88.2077,132.354 80.5,127.5C 80.5,126.833 80.1667,126.5 79.5,126.5C 79.5,125.833 79.1667,125.5 78.5,125.5C 78.949,118.928 80.949,118.261 84.5,123.5C 84.6691,122.603 85.0024,121.603 85.5,120.5C 88.5249,123.915 91.1916,127.581 93.5,131.5C 96.4604,132.513 99.1271,133.846 101.5,135.5 Z"/></g>
<g><path style="opacity:0.647" fill="#a07683" d="M 129.5,123.5 C 132.089,124.419 134.089,126.086 135.5,128.5C 132.911,127.581 130.911,125.914 129.5,123.5 Z"/></g>
<g><path style="opacity:1" fill="#7a1220" d="M 85.5,104.5 C 87.433,106.937 89.5997,109.271 92,111.5C 95.8308,119.162 99.6641,126.828 103.5,134.5C 105.237,135.897 106.571,137.564 107.5,139.5C 107.5,140.833 106.833,141.5 105.5,141.5C 104.833,141.5 104.5,141.167 104.5,140.5C 104.408,138.152 103.408,136.486 101.5,135.5C 100.542,134.038 99.3756,132.705 98,131.5C 97.6737,126.801 95.6737,123.134 92,120.5C 91.5309,114.891 89.3642,110.224 85.5,106.5C 85.5,105.833 85.5,105.167 85.5,104.5 Z"/></g>
<g><path style="opacity:1" fill="#711125" d="M 49.5,122.5 C 49.8333,122.5 50.1667,122.5 50.5,122.5C 54.2139,126.234 57.2139,130.567 59.5,135.5C 60.0427,138.038 61.0427,140.372 62.5,142.5C 62.1667,142.5 61.8333,142.5 61.5,142.5C 58.769,138.142 55.769,133.976 52.5,130C 48.8036,130.003 45.1369,130.503 41.5,131.5C 41.69,129.041 40.69,127.374 38.5,126.5C 38.6107,125.883 38.944,125.383 39.5,125C 43.3113,125.083 46.6446,124.25 49.5,122.5 Z"/></g>
<g><path style="opacity:1" fill="#c5212c" d="M 154.5,114.5 C 155.393,116.297 156.726,117.63 158.5,118.5C 159.853,121.178 161.186,123.845 162.5,126.5C 162.667,130.249 164,133.415 166.5,136C 165.681,137.319 164.681,138.485 163.5,139.5C 162.808,138.975 162.308,138.308 162,137.5C 159.535,138.92 157.035,139.253 154.5,138.5C 151.249,135.41 148.916,131.743 147.5,127.5C 147.461,126.417 147.127,125.417 146.5,124.5C 147,124.167 147.5,123.833 148,123.5C 150.094,126.689 152.427,129.689 155,132.5C 156.352,130.406 156.852,128.073 156.5,125.5C 157.376,125.369 158.043,125.702 158.5,126.5C 157.089,128.017 157.256,129.351 159,130.5C 159.645,129.354 160.478,128.354 161.5,127.5C 160.208,124.712 158.374,122.378 156,120.5C 154.872,118.655 154.372,116.655 154.5,114.5 Z"/></g>
<g><path style="opacity:0.004" fill="#fefffe" d="M 181.5,127.5 C 182.833,128.167 182.833,128.167 181.5,127.5 Z"/></g>
<g><path style="opacity:1" fill="#661425" d="M 38.5,126.5 C 40.69,127.374 41.69,129.041 41.5,131.5C 45.1369,130.503 48.8036,130.003 52.5,130C 55.769,133.976 58.769,138.142 61.5,142.5C 61.5,142.833 61.5,143.167 61.5,143.5C 60.8333,143.5 60.1667,143.5 59.5,143.5C 51.0097,142.67 42.343,142.17 33.5,142C 31.7476,137.553 32.9143,134.053 37,131.5C 37.1981,129.618 37.6981,127.952 38.5,126.5 Z"/></g>
<g><path style="opacity:1" fill="#c5212a" d="M 108.5,139.5 C 108.167,135.5 107.833,131.5 107.5,127.5C 109.288,127.785 110.955,127.452 112.5,126.5C 111.294,124.484 111.294,122.484 112.5,120.5C 113.981,122.814 115.648,124.981 117.5,127C 117.355,127.772 117.022,128.439 116.5,129C 120.958,131.571 122.625,135.238 121.5,140C 117.113,140.706 112.78,140.54 108.5,139.5 Z"/></g>
<g><path style="opacity:0.153" fill="#e2a8a9" d="M 167.5,130.5 C 168.906,130.973 169.573,131.973 169.5,133.5C 168.094,133.027 167.427,132.027 167.5,130.5 Z"/></g>
<g><path style="opacity:0.004" fill="#fefffe" d="M 184.5,137.5 C 183.833,136.167 183.833,136.167 184.5,137.5 Z"/></g>
<g><path style="opacity:0.004" fill="#fefffe" d="M 184.5,137.5 C 185.833,138.167 185.833,138.167 184.5,137.5 Z"/></g>
<g><path style="opacity:1" fill="#bd353c" d="M 162.5,126.5 C 164.306,127.735 165.973,129.069 167.5,130.5C 167.427,132.027 168.094,133.027 169.5,133.5C 169.467,137.256 168.467,140.589 166.5,143.5C 162.22,144.54 157.887,144.706 153.5,144C 151.934,143.392 150.6,142.558 149.5,141.5C 150.376,141.631 151.043,141.298 151.5,140.5C 150.239,137.736 148.405,135.403 146,133.5C 145.495,131.482 144.995,129.482 144.5,127.5C 145.5,127.5 146.5,127.5 147.5,127.5C 148.916,131.743 151.249,135.41 154.5,138.5C 157.035,139.253 159.535,138.92 162,137.5C 162.308,138.308 162.808,138.975 163.5,139.5C 164.681,138.485 165.681,137.319 166.5,136C 164,133.415 162.667,130.249 162.5,126.5 Z"/></g>
<g><path style="opacity:0.663" fill="#b67b6d" d="M 169.5,133.5 C 170.239,133.369 170.906,133.536 171.5,134C 170.736,136.069 170.236,138.236 170,140.5C 169.28,142.056 168.113,143.056 166.5,143.5C 168.467,140.589 169.467,137.256 169.5,133.5 Z"/></g>
<g><path style="opacity:0.835" fill="#b25d60" d="M 121.5,127.5 C 125.283,131.4 127.116,136.066 127,141.5C 124.591,143.582 121.757,144.582 118.5,144.5C 114.827,144.047 111.16,143.547 107.5,143C 106.584,142.722 105.918,142.222 105.5,141.5C 106.833,141.5 107.5,140.833 107.5,139.5C 107.833,139.5 108.167,139.5 108.5,139.5C 108.804,140.15 109.137,140.817 109.5,141.5C 114.167,142.833 118.833,142.833 123.5,141.5C 124.046,140.228 124.379,138.894 124.5,137.5C 123.423,134.129 122.423,130.796 121.5,127.5 Z"/></g>
<g><path style="opacity:0.695" fill="#6c3740" d="M 38.5,122.5 C 42.1667,122.5 45.8333,122.5 49.5,122.5C 46.6446,124.25 43.3113,125.083 39.5,125C 38.944,125.383 38.6107,125.883 38.5,126.5C 37.6981,127.952 37.1981,129.618 37,131.5C 32.9143,134.053 31.7476,137.553 33.5,142C 42.343,142.17 51.0097,142.67 59.5,143.5C 50.4706,144.947 41.4706,144.78 32.5,143C 29.6508,140.441 28.8175,137.274 30,133.5C 31.4131,130.339 33.0797,127.339 35,124.5C 35.8159,123.177 36.9826,122.511 38.5,122.5 Z"/></g>
<g><path style="opacity:0.623" fill="#bd6466" d="M 79.5,126.5 C 80.1667,126.5 80.5,126.833 80.5,127.5C 79.9569,127.56 79.6236,127.893 79.5,128.5C 80.8364,131.838 82.1697,135.172 83.5,138.5C 83.2395,140.187 82.5728,141.687 81.5,143C 74.8812,144.83 68.2145,144.996 61.5,143.5C 61.5,143.167 61.5,142.833 61.5,142.5C 61.8333,142.5 62.1667,142.5 62.5,142.5C 68.2055,142.829 73.8722,142.495 79.5,141.5C 80.4147,140.672 81.0814,139.672 81.5,138.5C 80.0027,135.373 79.0027,132.04 78.5,128.5C 78.5427,127.584 78.8761,126.917 79.5,126.5 Z"/></g>
<g><path style="opacity:0.004" fill="#fefffe" d="M 91.5,142.5 C 92.8333,143.167 92.8333,143.167 91.5,142.5 Z"/></g>
<g><path style="opacity:0.004" fill="#fefffe" d="M 65.5,145.5 C 66.8333,146.167 66.8333,146.167 65.5,145.5 Z"/></g>
<g><path style="opacity:0.004" fill="#fefffe" d="M 172.5,146.5 C 173.833,147.167 173.833,147.167 172.5,146.5 Z"/></g>
<g><path style="opacity:0.004" fill="#fefffe" d="M 18.5,148.5 C 19.8333,149.167 19.8333,149.167 18.5,148.5 Z"/></g>
<g><path style="opacity:0.004" fill="#fefffe" d="M 114.5,149.5 C 115.833,150.167 115.833,150.167 114.5,149.5 Z"/></g>
<g><path style="opacity:0.004" fill="#fefffe" d="M 185.5,150.5 C 186.833,151.167 186.833,151.167 185.5,150.5 Z"/></g>
<g><path style="opacity:0.004" fill="#fefffe" d="M 84.5,151.5 C 85.8333,152.167 85.8333,152.167 84.5,151.5 Z"/></g>
<g><path style="opacity:0.004" fill="#fefffe" d="M 116.5,152.5 C 117.833,153.167 117.833,153.167 116.5,152.5 Z"/></g>
<g><path style="opacity:0.004" fill="#fefffe" d="M 165.5,154.5 C 166.833,155.167 166.833,155.167 165.5,154.5 Z"/></g>
<g><path style="opacity:0.004" fill="#fefffe" d="M -0.5,161.5 C 0.833333,162.167 0.833333,162.167 -0.5,161.5 Z"/></g>
<g><path style="opacity:0.004" fill="#fefffe" d="M 4.5,165.5 C 5.83333,166.167 5.83333,166.167 4.5,165.5 Z"/></g>
<g><path style="opacity:0.004" fill="#fefffe" d="M 107.5,168.5 C 108.833,169.167 108.833,169.167 107.5,168.5 Z"/></g>
<g><path style="opacity:0.004" fill="#fefffe" d="M 144.5,171.5 C 145.833,172.167 145.833,172.167 144.5,171.5 Z"/></g>
<g><path style="opacity:0.004" fill="#fefffe" d="M 51.5,172.5 C 52.8333,173.167 52.8333,173.167 51.5,172.5 Z"/></g>
<g><path style="opacity:0.004" fill="#fefffe" d="M 150.5,178.5 C 151.833,179.167 151.833,179.167 150.5,178.5 Z"/></g>
<g><path style="opacity:0.004" fill="#fefffe" d="M -0.5,180.5 C 0.833333,181.167 0.833333,181.167 -0.5,180.5 Z"/></g>
<g><path style="opacity:0.004" fill="#fefffe" d="M 152.5,181.5 C 153.833,182.167 153.833,182.167 152.5,181.5 Z"/></g>
<g><path style="opacity:0.004" fill="#fefffe" d="M 123.5,182.5 C 124.833,183.167 124.833,183.167 123.5,182.5 Z"/></g>
<g><path style="opacity:0.004" fill="#fefffe" d="M 88.5,184.5 C 89.8333,185.167 89.8333,185.167 88.5,184.5 Z"/></g>
<g><path style="opacity:0.004" fill="#fefffe" d="M 154.5,184.5 C 155.833,185.167 155.833,185.167 154.5,184.5 Z"/></g>
<g><path style="opacity:0.004" fill="#fefffe" d="M 165.5,184.5 C 166.833,185.167 166.833,185.167 165.5,184.5 Z"/></g>
<g><path style="opacity:0.004" fill="#fefffe" d="M 129.5,187.5 C 130.833,188.167 130.833,188.167 129.5,187.5 Z"/></g>
<g><path style="opacity:0.004" fill="#fefffe" d="M 99.5,189.5 C 100.833,190.167 100.833,190.167 99.5,189.5 Z"/></g>
<g><path style="opacity:0.004" fill="#fefffe" d="M 4.5,192.5 C 5.83333,193.167 5.83333,193.167 4.5,192.5 Z"/></g>
<g><path style="opacity:0.004" fill="#fefffe" d="M 70.5,192.5 C 71.8333,193.167 71.8333,193.167 70.5,192.5 Z"/></g>
<g><path style="opacity:0.004" fill="#fefffe" d="M 186.5,193.5 C 187.833,194.167 187.833,194.167 186.5,193.5 Z"/></g>
</svg>
